<svg width="16" height="17" viewBox="0 0 16 17" fill="none" xmlns="http://www.w3.org/2000/svg">
<g clip-path="url(#clip0_14_427)">
<path d="M14.3446 10.2107C15.2651 10.2107 16.0113 9.46448 16.0113 8.544C16.0113 7.62353 15.2651 6.87733 14.3446 6.87733C13.4242 6.87733 12.678 7.62353 12.678 8.544C12.678 9.46448 13.4242 10.2107 14.3446 10.2107Z" fill="#9A9A9A"/>
<path d="M7.99998 10.1667C8.92045 10.1667 9.66665 9.42047 9.66665 8.49999C9.66665 7.57952 8.92045 6.83333 7.99998 6.83333C7.07951 6.83333 6.33331 7.57952 6.33331 8.49999C6.33331 9.42047 7.07951 10.1667 7.99998 10.1667Z" fill="#9A9A9A"/>
<path d="M1.66667 10.1667C2.58714 10.1667 3.33333 9.42047 3.33333 8.49999C3.33333 7.57952 2.58714 6.83333 1.66667 6.83333C0.746192 6.83333 0 7.57952 0 8.49999C0 9.42047 0.746192 10.1667 1.66667 10.1667Z" fill="#9A9A9A"/>
</g>
<defs>
<clipPath id="clip0_14_427">
<rect width="16" height="16" fill="white" transform="translate(0 0.5)"/>
</clipPath>
</defs>
</svg>
