<svg width="18" height="20" viewBox="0 0 18 20" fill="none" xmlns="http://www.w3.org/2000/svg">
<path fill-rule="evenodd" clip-rule="evenodd" d="M11.4756 0.000297546C11.5185 0.000297546 11.5606 0.00391368 11.6016 0.0108579L11.7385 0.0116975C11.9425 0.0116975 12.1375 0.0946975 12.2795 0.241698L17.3445 5.5187C17.4785 5.6577 17.5536 5.8447 17.5536 6.0377V15.2037C17.5715 17.7127 15.6175 19.7627 13.1045 19.8647L5.08546 19.8657H4.97646C2.52652 19.8103 0.561627 17.8289 0.501767 15.4029L0.501465 4.4907C0.559465 2.0097 2.60846 0.0116975 5.07147 0.0116975L11.3495 0.0108579C11.3905 0.00391368 11.4326 0.000297546 11.4756 0.000297546ZM10.7255 1.5113L5.07346 1.5117C3.41646 1.5117 2.04046 2.8537 2.00146 4.5087V15.2037C1.96446 16.9167 3.31446 18.3277 5.01046 18.3657H13.0745C14.7435 18.2967 16.0655 16.9097 16.0535 15.2097L16.0535 6.9833L14.0436 6.9843C12.2136 6.9793 10.7256 5.4873 10.7256 3.6593L10.7255 1.5113ZM11.2888 12.6084C11.7028 12.6084 12.0388 12.9444 12.0388 13.3584C12.0388 13.7724 11.7028 14.1084 11.2888 14.1084H5.88876C5.47476 14.1084 5.13876 13.7724 5.13876 13.3584C5.13876 12.9444 5.47476 12.6084 5.88876 12.6084H11.2888ZM9.24387 8.8564C9.65786 8.8564 9.99387 9.1924 9.99387 9.6064C9.99387 10.0204 9.65786 10.3564 9.24387 10.3564H5.88787C5.47387 10.3564 5.13787 10.0204 5.13787 9.6064C5.13787 9.1924 5.47387 8.8564 5.88787 8.8564H9.24387ZM12.2255 2.3523L12.2256 3.6593C12.2256 4.6633 13.0426 5.4813 14.0456 5.4843L15.2315 5.4833L12.2255 2.3523Z" fill="#9A9A9A"/>
</svg>
