<svg width="25" height="24" viewBox="0 0 25 24" fill="none" xmlns="http://www.w3.org/2000/svg">
<path fill-rule="evenodd" clip-rule="evenodd" d="M21.5004 6.6738C21.5004 8.7024 19.8552 10.3476 17.8266 10.3476C15.798 10.3476 14.1537 8.7024 14.1537 6.6738C14.1537 4.6452 15.798 3 17.8266 3C19.8552 3 21.5004 4.6452 21.5004 6.6738Z" stroke="#9A9A9A" stroke-width="1.5" stroke-linecap="round" stroke-linejoin="round"/>
<path fill-rule="evenodd" clip-rule="evenodd" d="M10.8467 6.6738C10.8467 8.7024 9.2024 10.3476 7.1729 10.3476C5.1452 10.3476 3.5 8.7024 3.5 6.6738C3.5 4.6452 5.1452 3 7.1729 3C9.2024 3 10.8467 4.6452 10.8467 6.6738Z" stroke="#9A9A9A" stroke-width="1.5" stroke-linecap="round" stroke-linejoin="round"/>
<path fill-rule="evenodd" clip-rule="evenodd" d="M21.5004 17.2619C21.5004 19.2905 19.8552 20.9348 17.8266 20.9348C15.798 20.9348 14.1537 19.2905 14.1537 17.2619C14.1537 15.2333 15.798 13.5881 17.8266 13.5881C19.8552 13.5881 21.5004 15.2333 21.5004 17.2619Z" stroke="#9A9A9A" stroke-width="1.5" stroke-linecap="round" stroke-linejoin="round"/>
<path fill-rule="evenodd" clip-rule="evenodd" d="M10.8467 17.2619C10.8467 19.2905 9.2024 20.9348 7.1729 20.9348C5.1452 20.9348 3.5 19.2905 3.5 17.2619C3.5 15.2333 5.1452 13.5881 7.1729 13.5881C9.2024 13.5881 10.8467 15.2333 10.8467 17.2619Z" stroke="#9A9A9A" stroke-width="1.5" stroke-linecap="round" stroke-linejoin="round"/>
</svg>
