<svg width="25" height="24" viewBox="0 0 25 24" fill="none" xmlns="http://www.w3.org/2000/svg">
<path fill-rule="evenodd" clip-rule="evenodd" d="M12.3445 21.6619C8.65273 21.6619 5.5 21.0874 5.5 18.7866C5.5 16.4858 8.63273 14.3619 12.3445 14.3619C16.0364 14.3619 19.1891 16.4653 19.1891 18.766C19.1891 21.0659 16.0564 21.6619 12.3445 21.6619Z" stroke="#9A9A9A" stroke-width="1.5" stroke-linecap="round" stroke-linejoin="round"/>
<path fill-rule="evenodd" clip-rule="evenodd" d="M12.3373 11.1736C14.76 11.1736 16.7236 9.21 16.7236 6.78727C16.7236 4.36455 14.76 2.4 12.3373 2.4C9.91455 2.4 7.94998 4.36455 7.94998 6.78727C7.94182 9.20182 9.89182 11.1655 12.3064 11.1736C12.3173 11.1736 12.3273 11.1736 12.3373 11.1736Z" stroke="#9A9A9A" stroke-width="1.5" stroke-linecap="round" stroke-linejoin="round"/>
</svg>
