<svg width="25" height="24" viewBox="0 0 25 24" fill="none" xmlns="http://www.w3.org/2000/svg">
<path fill-rule="evenodd" clip-rule="evenodd" d="M12.5 9.5C13.8809 9.5 15 10.6191 15 12C15 13.3809 13.8809 14.5 12.5 14.5C11.1191 14.5 10 13.3809 10 12C10 10.6191 11.1191 9.5 12.5 9.5Z" stroke="#9A9A9A" stroke-width="1.5" stroke-linecap="round" stroke-linejoin="round"/>
<path fill-rule="evenodd" clip-rule="evenodd" d="M20.668 7.25025C19.9845 6.05799 18.4712 5.65004 17.2885 6.33852C16.2598 6.93613 14.9741 6.18838 14.9741 4.99218C14.9741 3.61619 13.8659 2.5 12.4998 2.5C11.1337 2.5 10.0255 3.61619 10.0255 4.99218C10.0255 6.18838 8.73977 6.93613 7.71199 6.33852C6.52829 5.65004 5.01507 6.05799 4.33153 7.25025C3.64896 8.4425 4.05399 9.96665 5.23769 10.6541C6.26546 11.2527 6.26546 12.7473 5.23769 13.3459C4.05399 14.0343 3.64896 15.5585 4.33153 16.7498C5.01507 17.942 6.52829 18.35 7.71101 17.6625C8.73879 17.0639 10.0255 17.8116 10.0255 19.0078C10.0255 20.3838 11.1337 21.5 12.4998 21.5C13.8659 21.5 14.9741 20.3838 14.9741 19.0078C14.9741 17.8116 16.2598 17.0639 17.2885 17.6625C18.4712 18.35 19.9845 17.942 20.668 16.7498C21.3515 15.5585 20.9455 14.0343 19.7628 13.3459C18.735 12.7473 18.7341 11.2527 19.7628 10.6541C20.9455 9.96665 21.3515 8.4425 20.668 7.25025Z" stroke="#9A9A9A" stroke-width="1.5" stroke-linecap="round" stroke-linejoin="round"/>
</svg>
