<svg width="26" height="26" viewBox="0 0 26 26" fill="none" xmlns="http://www.w3.org/2000/svg">
<path d="M2.97119 6.76074H23.2837C23.7152 6.76074 24.0649 6.41099 24.0649 5.97949V4.02637C24.0649 3.59487 23.7152 3.24512 23.2837 3.24512H2.97119C2.5397 3.24512 2.18994 3.59487 2.18994 4.02637V5.97949C2.18994 6.41099 2.5397 6.76074 2.97119 6.76074ZM2.97119 14.5732H23.2837C23.7152 14.5732 24.0649 14.2235 24.0649 13.792V11.8389C24.0649 11.4074 23.7152 11.0576 23.2837 11.0576H2.97119C2.5397 11.0576 2.18994 11.4074 2.18994 11.8389V13.792C2.18994 14.2235 2.5397 14.5732 2.97119 14.5732ZM2.97119 22.3857H23.2837C23.7152 22.3857 24.0649 22.036 24.0649 21.6045V19.6514C24.0649 19.2199 23.7152 18.8701 23.2837 18.8701H2.97119C2.5397 18.8701 2.18994 19.2199 2.18994 19.6514V21.6045C2.18994 22.036 2.5397 22.3857 2.97119 22.3857Z" fill="#9A9A9A"/>
</svg>
