<svg width="27" height="64" viewBox="0 0 27 64" fill="none" xmlns="http://www.w3.org/2000/svg">
<circle cx="13.5" cy="6" r="6" fill="#FFC107"/>
<path d="M6.624 52C5.728 52 4.992 51.728 4.416 51.184C3.872 50.608 3.6 49.904 3.6 49.072V21.328C3.6 20.496 3.872 19.808 4.416 19.264C4.992 18.688 5.696 18.4 6.528 18.4H22.128C22.96 18.4 23.648 18.672 24.192 19.216C24.768 19.728 25.056 20.4 25.056 21.232C25.056 21.936 24.768 22.56 24.192 23.104C23.648 23.648 22.96 23.92 22.128 23.92H9.168L9.6 23.344V32.992L9.264 32.368H19.968C20.8 32.368 21.488 32.64 22.032 33.184C22.608 33.696 22.896 34.368 22.896 35.2C22.896 35.904 22.608 36.528 22.032 37.072C21.488 37.616 20.8 37.888 19.968 37.888H9.168L9.6 37.456V49.072C9.6 49.904 9.296 50.608 8.688 51.184C8.112 51.728 7.424 52 6.624 52Z" fill="#F05756"/>
</svg>
